<?xml version="1.0" encoding="UTF-8"?>
<svg version="1.1" xmlns="http://www.w3.org/2000/svg" width="2550" height="2550">
<path d="M0 0 C2.9043965 2.73808329 5.02808271 4.88738575 6.87939453 8.43383789 C9.04723097 11.68692204 9.04723097 11.68692204 13.02001953 12.05371094 C14.55736876 12.08144359 16.0955076 12.07696482 17.6328125 12.046875 C18.46664963 12.05497696 19.30048676 12.06307892 20.15959167 12.07142639 C21.9580304 12.08609978 23.75661503 12.08758256 25.55508423 12.07730103 C29.37572062 12.05724747 33.19456872 12.10518667 37.01490784 12.14997864 C38.96135665 12.17245646 40.90784415 12.19179607 42.85435486 12.20805359 C124.58714718 12.93857734 206.40556445 30.1457297 422.25 124.3125 C423.55155029 125.11034912 423.55155029 125.11034912 424.87939453 125.92431641 C442.06642949 136.51340326 459.37381459 147.34682443 475.19921875 159.90234375 C478.1025746 162.19603205 481.05018051 164.41072427 484.02270508 166.61303711 C492.3634377 172.79546166 500.4508548 179.24886863 508.46484375 185.84765625 C510.07352146 187.16768719 511.69240593 188.4752558 513.3125 189.78125 C518.95428666 194.33314606 524.3670272 199.07397204 529.703125 203.98046875 C531.83941749 205.93655252 533.99780657 207.85437697 536.1875 209.75 C546.97818578 219.16299796 557.18916431 229.09275517 567.29711914 239.22924805 C569.57259584 241.51011977 571.85341717 243.78554975 574.13476562 246.06054688 C575.60709181 247.53353341 577.079108 249.00682986 578.55078125 250.48046875 C579.55568352 251.48233467 579.55568352 251.48233467 580.58088684 252.50444031 C584.45677564 256.39937584 588.15410968 260.40041935 591.73994446 264.56433105 C593.81540349 266.96705925 595.97069698 269.29298512 598.125 271.625 C602.21437787 276.10912928 606.09619021 280.71517238 609.90625 285.4375 C612.00034348 288.00625467 614.13213341 290.53322342 616.28710938 293.05053711 C621.72088323 299.40225498 626.90590612 305.90152005 631.93896484 312.57617188 C633.30361208 314.38350356 634.67694872 316.18401814 636.05078125 317.984375 C648.90191028 334.89341575 660.8625062 352.38915309 672.25 370.3125 C672.77948242 371.14330078 673.30896484 371.97410156 673.85449219 372.83007812 C719.56917203 444.80638256 751.67669822 524.09276551 790.25 736.3125 C790.32202637 737.36727539 790.39405273 738.42205078 790.46826172 739.50878906 C794.64256185 804.68101868 789.74617284 872.18371497 775.9140625 936.015625 C775.15127192 939.24214112 775.15127192 939.24214112 775.25 942.3125 C809.57679163 923.60506988 841.43917778 900.20580733 871.09130859 874.82543945 C878.71163545 868.3125 878.71163545 868.3125 881.25 868.3125 C879.99435364 880.75092722 878.31145925 893.05567967 876.1875 905.375 C876.0376062 906.24833984 875.8877124 907.12167969 875.73327637 908.02148438 C862.61090518 983.98699032 840.11266655 1058.5163856 807.25 1128.3125 C806.97047485 1128.90724121 806.69094971 1129.50198242 806.4029541 1130.11474609 C794.15270571 1156.1575715 781.03396805 1181.60819773 766.25 1206.3125 C765.68168457 1207.26866211 765.11336914 1208.22482422 764.52783203 1209.20996094 C752.04021874 1230.19485174 738.55296191 1250.52177766 724.25 1270.3125 C723.70134277 1271.07369141 723.15268555 1271.83488281 722.58740234 1272.61914062 C714.91873838 1283.23030576 706.96973946 1293.53995713 698.63085938 1303.63183594 C696.76780455 1305.8993871 694.94562664 1308.19831347 693.125 1310.5 C689.62988379 1314.88545108 686.01717772 1319.16366398 682.37963867 1323.4309082 C679.50706638 1326.80572338 676.70508722 1330.22544387 673.9375 1333.6875 C669.06927207 1339.67849041 663.77840792 1345.24785885 658.484375 1350.859375 C656.05351189 1353.44025709 653.68448457 1356.05913266 651.375 1358.75 C648.55682057 1362.02843486 645.5469993 1365.06022482 642.4375 1368.0625 C640.62123397 1369.93065934 638.93758171 1371.83020489 637.24609375 1373.80859375 C632.70501937 1379.03451974 627.8098293 1383.90265425 622.9074707 1388.78540039 C621.31541034 1390.37209946 619.7287701 1391.96407742 618.14257812 1393.55664062 C613.18755981 1398.51455927 608.18815231 1403.36569374 602.85717773 1407.92358398 C600.88641894 1409.62670517 599.05871127 1411.4391919 597.25 1413.3125 C594.0788397 1416.52684731 590.79417247 1419.53000963 587.37109375 1422.47265625 C585.02508942 1424.50758819 582.7326355 1426.59540967 580.4375 1428.6875 C576.12090287 1432.5829657 571.6759887 1436.28108218 567.15625 1439.9375 C564.59696447 1442.02895914 562.07390104 1444.15331015 559.56152344 1446.30029297 C539.7694743 1463.20624956 518.7066935 1478.59986883 497.25 1493.3125 C496.59225586 1493.76431641 495.93451172 1494.21613281 495.25683594 1494.68164062 C471.22259742 1511.12545489 445.97824886 1525.62222903 420.06152344 1538.86865234 C417.39923653 1540.23586012 414.74971774 1541.62520268 412.1015625 1543.01953125 C373.79325099 1562.95634562 332.19602338 1577.07351917 290.2578125 1586.96484375 C289.18988716 1587.21689921 289.18988716 1587.21689921 288.10038757 1587.47404671 C268.14329914 1592.16080942 248.03800185 1596.13222817 227.93173981 1600.11869812 C224.70953096 1600.75802963 221.48773987 1601.39942929 218.26605225 1602.04138184 C186.65337596 1608.33820283 155.01421022 1614.49419642 123.34475708 1620.49895096 C120.38201948 1621.06116796 117.41961939 1621.62513574 114.45727539 1622.18942261 C109.83092386 1623.06999543 105.20345087 1623.94441065 100.57496262 1624.81368065 C98.88572495 1625.13163249 97.19681277 1625.45131934 95.50825882 1625.77288246 C93.20844068 1626.21028292 90.90743183 1626.64075067 88.60595703 1627.06933594 C87.32206085 1627.31101501 86.03816467 1627.55269409 84.71536255 1627.80169678 C81.49664303 1628.27614419 78.49671847 1628.41180616 75.25 1628.3125 C78.25101939 1622.81063112 81.66690678 1617.79702084 85.375 1612.75 C86.54333557 1611.14740278 87.7113008 1609.5445355 88.87890625 1607.94140625 C89.4527002 1607.15523926 90.02649414 1606.36907227 90.61767578 1605.55908203 C92.47098187 1603.00836074 94.29944733 1600.44102004 96.12182617 1597.86816406 C113.07246609 1573.94193786 131.22701094 1550.82447798 149.7734375 1528.12109375 C151.08047541 1526.5201452 152.38423356 1524.91652024 153.6875 1523.3125 C158.11716803 1517.87033643 162.61768937 1512.49407324 167.16455078 1507.14990234 C170.0761286 1503.72170506 172.92777946 1500.25257727 175.75 1496.75 C179.8745599 1491.67930449 184.24616599 1486.88057521 188.6875 1482.08984375 C191.35361915 1479.20019327 193.94598353 1476.25740996 196.5234375 1473.2890625 C203.14853777 1465.7046717 209.9817412 1458.30272531 216.79980469 1450.89208984 C218.26871411 1449.29211611 219.73234234 1447.6874358 221.1953125 1446.08203125 C227.08950768 1439.63236218 233.11534513 1433.37023091 239.36328125 1427.26171875 C241.47020891 1425.15984801 243.42535323 1422.97250227 245.359375 1420.7109375 C249.85907399 1415.51509812 254.72555519 1410.68710282 259.5925293 1405.83959961 C261.18458966 1404.25290054 262.7712299 1402.66092258 264.35742188 1401.06835938 C269.26138309 1396.16152659 274.21073031 1391.36841883 279.48657227 1386.85766602 C282.38449773 1384.31842051 285.06058108 1381.56898672 287.75 1378.8125 C291.73852806 1374.7245074 295.84416728 1370.87715139 300.16601562 1367.14257812 C303.78561662 1363.96397819 307.25944708 1360.63138638 310.75 1357.3125 C316.1447672 1352.18304922 321.60758652 1347.16885484 327.25 1342.3125 C327.81025879 1341.83006836 328.37051758 1341.34763672 328.94775391 1340.85058594 C330.567143 1339.46030498 332.18940744 1338.07345476 333.8125 1336.6875 C338.83066027 1332.39567934 343.82799909 1328.08084866 348.8125 1323.75 C357.91013278 1315.85480628 367.03408426 1308.00118936 376.48046875 1300.5234375 C378.62155693 1298.8141908 380.74644747 1297.09044902 382.86328125 1295.3515625 C390.16014151 1289.36349124 397.5302391 1283.52433312 405.11230469 1277.90112305 C410.17984 1274.13735318 415.15973861 1270.27237101 420.125 1266.375 C428.26145027 1260.00741926 436.58217605 1253.93115226 444.99121094 1247.93017578 C447.27455696 1246.29491306 449.5487382 1244.64766303 451.8203125 1242.99609375 C452.5834375 1242.44187744 453.3465625 1241.88766113 454.1328125 1241.31665039 C455.54256808 1240.29233647 456.95153929 1239.26694126 458.359375 1238.23999023 C472.0527924 1228.31523658 486.16955246 1218.98678744 500.25 1209.625 C501.91153159 1208.51899026 503.57299027 1207.41287097 505.234375 1206.30664062 C509.23874828 1203.64067007 513.24409001 1200.97616086 517.25 1198.3125 C496.13988786 1208.03686784 475.40334438 1218.20154565 455.00708008 1229.35290527 C453.28144173 1230.29532872 451.55382382 1231.23412454 449.82617188 1232.17285156 C433.44874533 1241.0822854 417.42037576 1250.47124327 401.56347656 1260.26757812 C398.46162336 1262.18189601 395.35263272 1264.08406319 392.2421875 1265.984375 C369.68266494 1279.84490634 347.69496686 1294.7826602 326.25 1310.3125 C325.50959473 1310.84858887 324.76918945 1311.38467773 324.00634766 1311.93701172 C307.27299501 1324.09005448 290.98767329 1336.77544206 274.99414062 1349.88427734 C273.42091076 1351.17254648 271.84351752 1352.45572725 270.265625 1353.73828125 C263.75900689 1359.03196044 257.34021445 1364.42386562 250.95458984 1369.86230469 C249.22880671 1371.33053039 247.49925728 1372.79423533 245.76953125 1374.2578125 C239.33733257 1379.71727623 233.02173071 1385.27319261 226.86328125 1391.04077148 C224.13541412 1393.59274876 221.37155505 1396.08806511 218.54785156 1398.53393555 C214.40065271 1402.1569845 210.358475 1405.87912138 206.3515625 1409.65625 C205.25831161 1410.6864325 205.25831161 1410.6864325 204.14297485 1411.73742676 C196.57718525 1418.90012972 189.18163367 1426.22913554 181.82568359 1433.60644531 C179.59458428 1435.84298995 177.35807053 1438.074023 175.12109375 1440.3046875 C173.67155368 1441.75488723 172.22232321 1443.20539651 170.7734375 1444.65625 C170.11918793 1445.30847534 169.46493835 1445.96070068 168.79086304 1446.63269043 C164.98818788 1450.45453482 161.36558395 1454.38337062 157.85168457 1458.47270203 C155.11981069 1461.61070818 152.23665936 1464.60585496 149.375 1467.625 C144.45832992 1472.84851502 139.80304295 1478.1647919 135.32421875 1483.76953125 C133.20912404 1486.36261347 131.00481904 1488.840349 128.75 1491.3125 C124.04531985 1496.48764816 119.64563657 1501.8745284 115.25 1507.3125 C114.23917233 1508.54370087 113.22739951 1509.77412618 112.21484375 1511.00390625 C105.1487012 1519.60607405 98.35710142 1528.37020458 91.73388672 1537.31689453 C90.25069659 1539.3115632 88.75474307 1541.29592657 87.25390625 1543.27734375 C75.81451696 1558.38564831 65.05830466 1573.93003197 54.56591797 1589.70825195 C52.85861447 1592.27463034 51.1463198 1594.83762875 49.43359375 1597.40039062 C42.06899224 1608.40754677 42.06899224 1608.40754677 35.31396484 1619.79516602 C34.96285645 1620.29588623 34.61174805 1620.79660645 34.25 1621.3125 C33.59 1621.3125 32.93 1621.3125 32.25 1621.3125 C32.15569523 1609.48655322 32.08544728 1597.66070137 32.04275131 1585.83444977 C32.02221931 1580.33806214 31.99456581 1574.84193869 31.94824219 1569.34570312 C31.71656905 1541.0696887 32.59002756 1513.36770965 36.25 1485.3125 C36.39747681 1484.16910156 36.54495361 1483.02570313 36.69689941 1481.84765625 C37.50781013 1475.72969142 38.45395251 1469.64426977 39.5 1463.5625 C39.64617767 1462.69102325 39.79235535 1461.81954651 39.94296265 1460.92166138 C48.46324819 1410.22502596 62.62279318 1362.0174294 84.25 1315.3125 C85.09128837 1313.46490865 85.93244117 1311.61725555 86.7734375 1309.76953125 C92.40872698 1297.52946453 98.82065002 1285.80770434 105.59423828 1274.16357422 C107.19977474 1271.39898343 108.78651349 1268.6242969 110.37109375 1265.84765625 C124.82608571 1240.72706501 141.50290678 1216.4440242 160.25 1194.3125 C161.14234718 1193.24644525 162.03425048 1192.18001885 162.92578125 1191.11328125 C167.83940458 1185.25160962 172.82941115 1179.47641336 177.984375 1173.82421875 C179.2370679 1172.43545748 180.48331883 1171.04047137 181.70092773 1169.62084961 C186.81933876 1163.66409769 192.2646524 1158.05587923 197.8125 1152.5 C198.29899017 1152.01250275 198.78548035 1151.52500549 199.28671265 1151.0227356 C206.30940388 1144.00982908 213.45450837 1137.45080129 221.49121094 1131.609375 C223.4724144 1130.14849871 225.41235545 1128.64115632 227.3515625 1127.125 C236.3807962 1120.07916681 245.57999797 1113.4498826 255.25 1107.3125 C256.26368652 1106.66764648 256.26368652 1106.66764648 257.29785156 1106.00976562 C331.53151797 1059.07846752 422.57096463 1029.86834805 553.9291687 1010.2217865 C616.46609151 1002.87727937 676.40406617 990.62676323 733.6328125 963.44482422 C736.25 962.3125 736.25 962.3125 738.25 962.3125 C738.41435547 960.45625 738.41435547 960.45625 738.58203125 958.5625 C739.23603086 952.70047208 740.59304944 947.04822656 741.9375 941.3125 C758.19927926 869.54845381 763.94357868 794.65993483 757.25 721.3125 C757.18683594 720.6087323 757.12367187 719.9049646 757.05859375 719.17987061 C753.71178 682.09114506 747.77985329 645.55866497 739.25 609.3125 C739.09229126 608.64041504 738.93458252 607.96833008 738.77209473 607.27587891 C732.01156224 578.59182952 723.24078796 550.39464273 712.875 522.8125 C712.63414673 522.17144318 712.39329346 521.53038635 712.1451416 520.86990356 C708.75967952 511.9062224 705.08365831 503.09145999 701.25 494.3125 C698.92711095 494.08615267 698.92711095 494.08615267 696.75 496.625 C688.02172564 504.09528698 675.05431346 503.10998316 664.30029297 502.55371094 C635.50740474 500.27682815 607.08061973 488.58047316 581.25 476.3125 C579.73865479 475.59707031 579.73865479 475.59707031 578.19677734 474.8671875 C543.94026476 458.51239483 510.87397905 437.77195632 482.17578125 412.8359375 C479.31166266 410.36568301 476.38834776 407.99052228 473.4375 405.625 C469.42286724 402.36092902 465.74911063 398.92574157 462.1484375 395.21484375 C460.23227957 393.29474311 458.24364711 391.51860163 456.1875 389.75 C450.38162453 384.73789656 445.17076403 379.32627742 440.17578125 373.51171875 C438.82521479 371.96938828 437.4446876 370.453025 436.04296875 368.95703125 C428.47607746 360.876716 421.83850167 352.19702641 415.25 343.3125 C414.80124512 342.71034668 414.35249023 342.10819336 413.89013672 341.48779297 C374.25 288.05978261 374.25 288.05978261 374.25 272.3125 C438.62098037 255.22935151 507.82273803 270.20420455 564.71875 302.640625 C577.64293872 310.17612094 589.56228685 319.10484595 601.5168457 328.07250977 C603.23541408 329.37050933 603.23541408 329.37050933 605.25 330.3125 C597.80653245 321.09396069 590.31783128 311.92495435 582.61816406 302.91894531 C581.22483444 301.28295158 579.84220031 299.63837632 578.4609375 297.9921875 C565.82355585 282.9898779 552.09520626 269.06600515 538.25 255.1875 C537.61780548 254.55262665 536.98561096 253.9177533 536.33425903 253.26364136 C529.81539887 246.72383894 523.2944809 240.29085807 516.25 234.3125 C514.47429779 232.69282183 512.70291693 231.06838282 510.9375 229.4375 C506.44501362 225.34050073 501.83092718 221.45129574 497.09765625 217.63671875 C494.65091077 215.63971798 492.25394379 213.59692909 489.8671875 211.52905273 C481.43980795 204.25699705 472.53345036 197.64924595 463.58203125 191.04052734 C461.60723184 189.5772076 459.64418133 188.10065415 457.6875 186.61328125 C438.80224066 172.35815405 418.67202395 159.25195656 398.25 147.3125 C397.48091309 146.86068359 396.71182617 146.40886719 395.91943359 145.94335938 C351.67835225 120.04527692 305.78530086 98.83099283 257.25 82.3125 C256.15397461 81.93673828 255.05794922 81.56097656 253.92871094 81.17382812 C199.48712283 62.64667016 142.50459877 51.31031229 85.25 46.3125 C84.16992676 46.21485352 83.08985352 46.11720703 81.97705078 46.01660156 C56.13415497 43.75682236 30.17314578 43.67879689 4.25 43.3125 C3.92 42.6525 3.59 41.9925 3.25 41.3125 C2.76273438 41.84617187 2.27546875 42.37984375 1.7734375 42.9296875 C-31.40575995 77.79800773 -86.09810187 90.98286716 -132.6171875 92.5 C-179.4625881 93.43031826 -225.70975894 78.90948038 -260.75 47.3125 C-262.06195991 46.20769166 -263.37439621 45.10344856 -264.6875 44 C-288.48139356 22.97869997 -288.48139356 22.97869997 -293.75 11.3125 C-257.4382072 -13.00511254 -219.12378685 -28.39119652 -175.75 -34.6875 C-174.86812012 -34.81882324 -173.98624023 -34.95014648 -173.07763672 -35.08544922 C-120.02759662 -42.60377134 -41.59048553 -37.85121672 0 0 Z " fill="#8CC53F" transform="translate(1258.75,244.6875)"/>
<path d="M0 0 C3.76419291 1.25473097 3.97365456 2.2495678 5.78515625 5.6875 C6.31085205 6.68322021 6.83654785 7.67894043 7.37817383 8.70483398 C7.93400146 9.79223877 8.4898291 10.87964355 9.0625 12 C9.63959717 13.12414307 10.21669434 14.24828613 10.8112793 15.40649414 C29.24348546 51.95763282 39.39548085 91.31632369 43 132 C43.07057617 132.76602539 43.14115234 133.53205078 43.21386719 134.32128906 C47.94154579 187.92666078 44.7766419 262.70050011 9.78515625 306.875 C8.88763965 307.94337862 7.98665316 309.01334684 7 310 C6.87270164 312.57412717 6.81162228 315.11963991 6.796875 317.6953125 C6.78986069 318.49743668 6.78284637 319.29956085 6.77561951 320.12599182 C6.75781014 322.79238316 6.75173971 325.45855086 6.75 328.125 C6.74932526 329.04302399 6.74865051 329.96104797 6.74795532 330.90689087 C6.81251504 386.64002488 15.61367166 442.01180454 29 496 C29.11384033 496.7523291 29.22768066 497.5046582 29.3449707 498.27978516 C29.87103034 500.15942161 29.87103034 500.15942161 31.76123047 501.18164062 C32.53869629 501.50326172 33.31616211 501.82488281 34.1171875 502.15625 C35.0158252 502.53281738 35.91446289 502.90938477 36.84033203 503.29736328 C37.84177246 503.6942334 38.84321289 504.09110352 39.875 504.5 C41.45643799 505.13977783 41.45643799 505.13977783 43.06982422 505.79248047 C67.79633468 515.61165958 93.09820344 523.90310532 119 530 C120.88090332 530.44569336 120.88090332 530.44569336 122.79980469 530.90039062 C149.36258751 537.037978 176.36306293 540.00783906 203.40429688 543.21533203 C269.20129664 551.02471591 331.45389196 567.28030788 394 589 C395.22058105 589.42345703 396.44116211 589.84691406 397.69873047 590.28320312 C447.39827302 607.70323443 494.29715392 632.55360055 535.34130859 665.66601562 C536.86036771 666.88770226 538.39245563 668.09314274 539.92578125 669.296875 C547.89504551 675.75672894 555.12652338 682.94271112 562.375 690.1875 C562.89737244 690.70887543 563.41974487 691.23025085 563.95794678 691.76742554 C569.85446227 697.66521538 575.6024423 703.63640711 581 710 C581.97288236 711.11812462 582.94681074 712.23534011 583.921875 713.3515625 C590.38518649 720.81321673 596.62918967 728.40945028 602.64208984 736.23876953 C603.9441007 737.92749774 605.26199123 739.60269593 606.58203125 741.27734375 C623.07880118 762.47931597 637.93131688 785.55276691 651 809 C651.58265625 810.03801758 652.1653125 811.07603516 652.765625 812.14550781 C686.50862546 872.59580959 706.77582233 937.93365101 717.25 1006.1875 C717.36901672 1006.94826843 717.48803345 1007.70903687 717.61065674 1008.49285889 C718.51315158 1014.31635887 719.28013515 1020.15132008 720 1026 C720.13443512 1027.05092834 720.26887024 1028.10185669 720.40737915 1029.18463135 C723.52433919 1054.32629894 723.36324959 1079.40226335 723.20599365 1104.69921875 C723.17473338 1110.2786101 723.16148358 1115.85804544 723.14648438 1121.4375 C723.1147678 1132.29177791 723.06389728 1143.14586697 723 1154 C722.34 1154 721.68 1154 721 1154 C719.47905484 1151.67553664 718.07619124 1149.34058065 716.6875 1146.9375 C704.81694983 1126.97282947 691.34095888 1107.78549368 677.55224609 1089.10546875 C675.8563682 1086.80517763 674.17199962 1084.49670437 672.48828125 1082.1875 C665.51154958 1072.63954925 658.40808369 1063.21747823 651 1054 C650.4858252 1053.3596582 649.97165039 1052.71931641 649.44189453 1052.05957031 C643.34858614 1044.48549097 637.18717087 1036.97536176 630.87841797 1029.57958984 C628.07009552 1026.28393182 625.33333884 1022.94053717 622.625 1019.5625 C618.54908898 1014.54824976 614.21147206 1009.81957713 609.77978516 1005.12133789 C607.03623818 1002.21085551 604.34650087 999.26987215 601.72729492 996.24658203 C590.93933706 983.89045051 579.39217828 972.22838035 567.78149414 960.65112305 C565.5360842 958.41114814 563.29617161 956.16577304 561.05664062 953.91992188 C559.60188354 952.46582458 558.14681682 951.01203697 556.69140625 949.55859375 C556.03604385 948.90120712 555.38068146 948.2438205 554.70545959 947.56651306 C550.84881622 943.72911463 546.87788197 940.08149931 542.760849 936.52503967 C540.79537243 934.82277574 538.88734597 933.06959456 537 931.28125 C536.34 930.65863281 535.68 930.03601562 535 929.39453125 C533.66666667 928.13151042 532.33333333 926.86848958 531 925.60546875 C526.42653951 921.29105192 521.76071843 917.10662023 517 913 C516.42846191 912.50628906 515.85692383 912.01257812 515.26806641 911.50390625 C511.78730998 908.5048479 508.29330627 905.52121906 504.79931641 902.53759766 C503.6391774 901.54620614 502.47992905 900.55377096 501.32177734 899.56005859 C494.8118407 893.97479547 488.21571658 888.53747971 481.44580078 883.26977539 C476.86801783 879.7028932 472.3657283 876.05063766 467.875 872.375 C461.93684368 867.52949258 455.92345911 862.82218537 449.74511719 858.28417969 C447.70310122 856.78152104 445.66805496 855.26963212 443.6328125 853.7578125 C442.02624658 852.56743173 440.41947521 851.37732818 438.8125 850.1875 C438.09537842 849.65519775 437.37825684 849.12289551 436.6394043 848.57446289 C423.05421931 838.54994085 409.15591233 828.99295998 395.09863281 819.64550781 C392.63115059 818.00409149 390.16700051 816.35776136 387.703125 814.7109375 C373.11149221 804.97850527 358.38870525 795.42715105 343.25 786.5625 C342.34427246 786.03011719 341.43854492 785.49773438 340.50537109 784.94921875 C306.74159893 765.17486997 272.17872171 745.08687435 236 730 C237.34964844 730.82177734 237.34964844 730.82177734 238.7265625 731.66015625 C250.75518213 739.04791283 262.38841934 746.97724093 274 755 C274.9698584 755.66902344 275.9397168 756.33804688 276.93896484 757.02734375 C295.25709758 769.67435008 313.28965909 782.60622621 330.95703125 796.1484375 C334.73188292 799.03966151 338.53070488 801.89526994 342.34863281 804.72924805 C350.50863543 810.78838475 358.40906608 817.12783966 366.26220703 823.578125 C368.59681109 825.48831522 370.95267993 827.37109113 373.3125 829.25 C386.61159372 839.86710982 399.56537741 850.88131485 412.46875 861.97265625 C414.79367848 863.96975955 417.12715881 865.9560592 419.46875 867.93359375 C426.37891823 873.78432608 433.0996604 879.79162934 439.67553711 886.01708984 C442.70739235 888.88395477 445.77093531 891.6937515 448.921875 894.4296875 C453.17048821 898.12250793 457.28235101 901.94828664 461.375 905.8125 C462.11741943 906.51173584 462.85983887 907.21097168 463.62475586 907.93139648 C468.38628158 912.43119149 473.06555426 916.99003227 477.62890625 921.69140625 C479.54751137 923.55943859 481.49103885 925.29290052 483.5234375 927.03125 C488.74154413 931.56162852 493.5992881 936.44934124 498.47290039 941.3425293 C500.05959946 942.93458966 501.65157742 944.5212299 503.24414062 946.10742188 C508.14075945 951.00117489 512.92226017 955.9405086 517.42358398 961.20532227 C520.13087553 964.28745022 523.06806318 967.1335082 526 970 C530.26884251 974.17355585 534.31728849 978.44507026 538.21875 982.96484375 C541.22114865 986.3952159 544.36534954 989.69084323 547.5 993 C554.53343138 1000.42498323 561.24339656 1008.09143313 567.875 1015.875 C571.42401333 1020.03206689 575.00674022 1024.14575502 578.6875 1028.1875 C582.48507249 1032.37369301 586.07065944 1036.70019014 589.625 1041.09375 C592.16665378 1044.2039316 594.76608466 1047.25888841 597.375 1050.3125 C602.13431258 1055.901684 606.69000186 1061.63009642 611.19921875 1067.421875 C613.52781441 1070.40938422 615.89786939 1073.3607987 618.2800293 1076.30566406 C624.88345449 1084.47851318 631.18976321 1092.85762855 637.46875 1101.28125 C640.31412007 1105.09525669 643.20364097 1108.86896696 646.125 1112.625 C654.99532466 1124.11543706 663.3354744 1136.00547838 671.6875 1147.875 C672.58807129 1149.15032593 672.58807129 1149.15032593 673.50683594 1150.45141602 C674.06532227 1151.24862061 674.62380859 1152.0458252 675.19921875 1152.8671875 C675.69252686 1153.56956543 676.18583496 1154.27194336 676.6940918 1154.99560547 C677.96266558 1156.94269666 678.97885899 1158.91550624 680 1161 C670.00336298 1160.42837131 660.2976461 1158.5069035 650.484375 1156.6328125 C648.63027906 1156.28248426 646.77611557 1155.93251334 644.92189026 1155.58287048 C639.90916034 1154.63575079 634.89789171 1153.68111567 629.88705826 1152.7240181 C626.73719378 1152.12255467 623.58705809 1151.52252991 620.43685913 1150.92282104 C590.05253332 1145.13547602 559.68356568 1139.26652294 529.34265137 1133.2555542 C525.39714462 1132.47394619 521.45079648 1131.69685512 517.50354004 1130.9241333 C496.69134964 1126.84484843 476.00307635 1122.43760119 455.421875 1117.30859375 C454.52482157 1117.08627642 453.62776814 1116.86395908 452.70353127 1116.63490486 C424.99383568 1109.73363798 398.19512468 1100.35483781 372 1089 C371.06752441 1088.59652344 370.13504883 1088.19304687 369.17431641 1087.77734375 C358.76559779 1083.24351914 348.51439604 1078.4266968 338.41699219 1073.23730469 C335.5783132 1071.78413044 332.73009571 1070.3503027 329.8828125 1068.9140625 C286.43623099 1046.85379258 245.24525751 1019.42033638 207.68066406 988.38085938 C205.4131129 986.51780455 203.11418653 984.69562664 200.8125 982.875 C195.34805976 978.51439494 190.02454762 973.99097289 184.70751953 969.453125 C183.01718589 968.01462545 181.31988508 966.58474563 179.62109375 965.15625 C171.1538309 958.00738138 163.05001725 950.5211847 155.01025391 942.89697266 C153.07340505 941.06926855 151.12380302 939.25657214 149.16796875 937.44921875 C141.27066594 930.1391693 133.55796787 922.66106807 125.9375 915.0625 C125.05682861 914.1864209 124.17615723 913.3103418 123.26879883 912.40771484 C118.83160595 907.95991784 114.55316401 903.44307299 110.45922852 898.67749023 C108.72803099 896.68735167 106.89719266 894.83177222 105 893 C101.78565269 889.8288397 98.78249037 886.54417247 95.83984375 883.12109375 C93.80491181 880.77508942 91.71709033 878.4826355 89.625 876.1875 C85.76977614 871.91689849 82.12417485 867.51226331 78.5078125 863.0390625 C75.61167573 859.52941389 72.62304174 856.10995408 69.625 852.6875 C64.01620181 846.26053246 58.68824416 839.66421792 53.48046875 832.91015625 C51.87365163 830.8369806 50.25053809 828.77727566 48.625 826.71875 C41.30321094 817.42318215 34.3028361 807.96652656 27.5625 798.2421875 C25.90957436 795.8702392 24.23794248 793.51234098 22.5625 791.15625 C9.0134644 772.05925462 -3.08457334 752.14790326 -15 732 C-15.51530273 731.13213867 -16.03060547 730.26427734 -16.56152344 729.37011719 C-45.33429892 680.72356092 -68.3365619 628.50211644 -86.33258057 574.98077393 C-86.98470913 573.04538038 -87.64268056 571.11206932 -88.30224609 569.17919922 C-102.80629764 526.46880406 -113.31125243 482.49599835 -120.9375 438.0625 C-121.15339783 436.81025635 -121.15339783 436.81025635 -121.37365723 435.53271484 C-123.3352324 424.05838316 -124.83086979 412.58139866 -126 401 C-122.67162792 402.59823011 -120.08965967 404.43582832 -117.25 406.8125 C-115.79400391 408.0190625 -115.79400391 408.0190625 -114.30859375 409.25 C-113.77862793 409.69085937 -113.24866211 410.13171875 -112.70263672 410.5859375 C-79.92692648 437.80660193 -44.88019786 460.77101919 -8 482 C-9.03699215 474.83726257 -10.20887855 467.71645111 -11.55078125 460.60546875 C-17.29285997 430.08026615 -21.52454362 399.55249682 -23.75 368.5625 C-23.84536545 367.23637192 -23.84536545 367.23637192 -23.94265747 365.88345337 C-24.64895379 355.75917934 -25.07459485 345.67276721 -25.12109375 335.5234375 C-25.12889862 334.5874321 -25.13670349 333.6514267 -25.14474487 332.6870575 C-25.18031947 328.21190526 -25.17734132 323.74432993 -25.09472656 319.26977539 C-25.045989 310.35920114 -25.44081629 304.79215404 -31.93481445 298.07006836 C-32.61632568 297.3869458 -33.29783691 296.70382324 -34 296 C-35.83292805 293.44770189 -37.42567809 290.78047418 -39 288.0625 C-39.62708862 286.98307129 -39.62708862 286.98307129 -40.2668457 285.88183594 C-44.9667044 277.5777692 -48.6403145 268.91914405 -52 260 C-52.30534668 259.19111328 -52.61069336 258.38222656 -52.92529297 257.54882812 C-74.8498384 198.31860928 -76.94545748 126.21806635 -50.52294922 68.08959961 C-38.16416712 41.73415309 -20.64710955 20.28768211 0 0 Z " fill="#8CC53F" transform="translate(536,712)"/>
<path d="M0 0 C7.98810507 6.31712391 12.78135742 13.96378093 14.0625 24.125 C14.91334269 46.77868664 0.90919687 65.40952184 -13.625 81.3125 C-15.40612068 83.21863841 -17.20243206 85.10926543 -19 87 C-19.61875 87.68320312 -20.2375 88.36640625 -20.875 89.0703125 C-34.67623074 103.79573279 -52.92248348 114.41570445 -71 123 C-52.14940662 124.85748102 -33.44645865 126.06649948 -14.5 126.1875 C-13.36232178 126.20055176 -12.22464355 126.21360352 -11.05249023 126.22705078 C9.17465863 126.24703949 28.7604722 122.57787189 48.5617981 118.86456299 C56.55910889 117.36656685 64.5640673 115.91031951 72.5703125 114.4609375 C73.79248443 114.23965242 73.79248443 114.23965242 75.03934669 114.01389694 C128.18446451 104.4138748 181.83646562 96.54116727 235.625 91.6875 C236.45173218 91.61186829 237.27846436 91.53623657 238.13024902 91.45831299 C244.415079 90.89311903 250.70486133 90.43365822 257 90 C258.19906982 89.9135321 259.39813965 89.82706421 260.63354492 89.73797607 C288.02690308 87.81543487 315.39055073 87.68801185 342.84228516 87.73925781 C349.04356847 87.75072593 355.24467991 87.74401143 361.44595718 87.73211288 C366.32284796 87.72480965 371.19969939 87.72721929 376.07659149 87.73236847 C378.36136649 87.73367774 380.64614539 87.73215612 382.93091583 87.72740936 C403.7176226 87.69362043 424.48638731 88.62867117 445 92.1875 C446.24998779 92.40253174 447.49997559 92.61756348 448.7878418 92.83911133 C499.46969434 101.95316474 548.05124752 126.80988953 588 159 C588.91523437 159.72316406 589.83046875 160.44632813 590.7734375 161.19140625 C607.56331221 174.63773857 623.90256736 189.92130977 637 207 C638.01356488 208.28575417 639.02795096 209.57086124 640.04296875 210.85546875 C673.48212294 253.49733205 694.91783269 304.68917908 704 358 C704.13277344 358.76344727 704.26554687 359.52689453 704.40234375 360.31347656 C711.77568628 404.86420629 703.5177428 454.01534646 677.6796875 491.4375 C673.47280871 497.18348078 668.88805646 502.53034359 664.04296875 507.74609375 C662.62683434 509.30844472 661.2701525 510.92596775 659.96484375 512.58203125 C658.20939101 514.74232001 656.49580273 516.46311089 654.375 518.25 C651.36947716 520.8104637 648.45339049 523.43602861 645.5625 526.125 C571.20727374 593.09018084 474.89435829 610.85492828 359.91113281 609.79785156 C302.76167802 606.76927538 246.02126212 591.73720726 195 566 C194.25927246 565.6302002 193.51854492 565.26040039 192.75537109 564.87939453 C164.27678642 550.58779032 138.81484187 530.97974165 115 510 C118.8196816 508.59339451 121.5821873 509.41396135 125.45703125 510.40625 C126.79042355 510.73837273 128.12392514 511.07005687 129.45751953 511.40136719 C130.16475159 511.58034546 130.87198364 511.75932373 131.60064697 511.94372559 C188.51100024 526.25650904 246.47189638 531.17340927 305 532 C304.79648926 530.87577637 304.59297852 529.75155273 304.38330078 528.59326172 C301.3611259 511.77574184 299.58541075 495.08021954 299 478 C298.95746094 476.783125 298.91492187 475.56625 298.87109375 474.3125 C298.4795631 450.92506929 299.1837978 418.23493886 316 400 C316.73283203 399.17048828 316.73283203 399.17048828 317.48046875 398.32421875 C324.96592202 390.87573069 335.45433026 389.60866856 345.5625 389.5 C359.14898532 389.68611624 367.41828783 393.30612732 377 403 C377.66773438 403.68707031 378.33546875 404.37414062 379.0234375 405.08203125 C395.26932365 420.86108159 420.71395805 424.81590701 442.5 425.25 C471.81781829 424.66510587 501.15577301 414.97283683 523 395 C523.82757812 394.25363281 524.65515625 393.50726562 525.5078125 392.73828125 C540.31296727 378.69891035 551.52003563 359.98008434 560.75 341.9375 C567.26830295 329.25883559 575.93090685 320.17317746 587.625 312.0625 C599.81524122 303.28960674 606.11277388 289.51921625 609 275 C609.37291095 272.33643873 609.69047945 269.67209945 610 267 C585.51409597 270.82954897 563.32525773 279.0806029 546.26953125 297.8203125 C545 299 545 299 543 299 C542.48953125 297.1128125 542.48953125 297.1128125 541.96875 295.1875 C538.76794682 283.73678682 534.8616301 273.34736015 529 263 C528.45730469 262.02933594 527.91460938 261.05867188 527.35546875 260.05859375 C517.34509467 243.32592467 500.26167723 224.6345218 481.40844727 218.10205078 C478.48909772 217.00922376 476.37179792 216.034663 474 214 C472.40450361 209.56559619 472.33723166 205.18061182 472.1875 200.5 C472.00916513 197.86645779 471.82028968 195.23360902 471.62109375 192.6015625 C471.52812012 191.30637695 471.43514648 190.01119141 471.33935547 188.67675781 C469.39761799 167.63894021 460.80878138 147.47108182 451 129 C448.23575832 129 447.53644496 130.09718806 445.5 131.9375 C444.77554688 132.58976563 444.05109375 133.24203125 443.3046875 133.9140625 C442.54414062 134.60242188 441.78359375 135.29078125 441 136 C440.30132813 136.60585938 439.60265625 137.21171875 438.8828125 137.8359375 C436.77702856 139.67940926 434.70660791 141.5550638 432.65673828 143.46044922 C431.43326464 144.59738184 430.20422253 145.72832896 428.97216797 146.85595703 C411.47550486 163.00170428 402.23499457 179.91396865 394 202 C378.40553041 243.11011808 350.13846064 264.79456361 310.9543457 282.69287109 C285.38417377 294.07539366 260.70625351 300.83673363 232.828125 302.421875 C212.15561084 303.59822133 212.15561084 303.59822133 192 308 C191.31260742 308.20077148 190.62521484 308.40154297 189.91699219 308.60839844 C166.08910654 315.75786574 145.43912222 329.60834263 127 346 C126.00871094 346.86882812 125.01742188 347.73765625 123.99609375 348.6328125 C118.57465264 353.45678867 113.56626516 358.36157195 109 364 C108.16855469 365.01707031 107.33710937 366.03414062 106.48046875 367.08203125 C85.91924271 392.54174217 71.6638358 420.84253785 65 453 C64.75378906 454.1653125 64.50757813 455.330625 64.25390625 456.53125 C59.47538062 484.74102889 63.16757537 514.31114565 73 541 C73.26151855 541.71704102 73.52303711 542.43408203 73.79248047 543.17285156 C79.81710048 559.3983744 87.99354357 574.60316243 99 588 C99.46164551 588.56702637 99.92329102 589.13405273 100.39892578 589.71826172 C124.92693226 619.70053292 162.03325802 641.83535942 200.6875 647.0625 C201.83943848 647.2275 202.99137695 647.3925 204.17822266 647.5625 C211.27722424 648.55858017 218.38492377 649.38683269 225.51318359 650.14135742 C254.79232813 653.26489143 254.79232813 653.26489143 264.7421875 665.06640625 C273.54656643 677.30931128 275.14117949 691.3660512 274 706 C272.88366788 712.09456995 270.60031617 715.88566228 265.875 719.875 C239.53725195 738.03014671 196.79341874 731.79421186 167.27294922 726.62548828 C131.70982398 719.82907422 96.5918932 704.21335852 68 682 C66.65228516 680.97519531 66.65228516 680.97519531 65.27734375 679.9296875 C54.34341867 671.34863238 45.5990956 660.85805241 37 650 C36.23300781 649.03964844 35.46601562 648.07929687 34.67578125 647.08984375 C22.97361157 632.18418157 12.57636692 616.34212085 3 600 C2.58685547 599.29617188 2.17371094 598.59234375 1.74804688 597.8671875 C-3.81350753 588.31294824 -8.80798243 578.51150765 -13.625 568.5625 C-14.15859131 567.46542725 -14.69218262 566.36835449 -15.24194336 565.23803711 C-15.73186768 564.21202393 -16.22179199 563.18601074 -16.7265625 562.12890625 C-17.16564941 561.21181885 -17.60473633 560.29473145 -18.05712891 559.34985352 C-19 557 -19 557 -19 554 C-19.825 554.56847656 -20.65 555.13695312 -21.5 555.72265625 C-57.36750289 579.92216348 -102.00886548 582.26133417 -143.57910156 574.31591797 C-194.19433888 563.98369461 -251.79737631 542.38939373 -281.8671875 497.48828125 C-285.1699098 492.27741778 -287.66855425 486.7054079 -290 481 C-289.34 480.67 -288.68 480.34 -288 480 C-286.35864258 480.76928711 -286.35864258 480.76928711 -284.39453125 482.02734375 C-283.30229248 482.71509888 -283.30229248 482.71509888 -282.18798828 483.41674805 C-281.40407715 483.91859619 -280.62016602 484.42044434 -279.8125 484.9375 C-231.44278184 515.09061234 -175.36593852 526.29486767 -119 517 C-117.77869385 516.79914795 -117.77869385 516.79914795 -116.53271484 516.59423828 C-105.30339704 514.62940537 -95.89911951 510.55672811 -86 505 C-85.32501465 504.63132812 -84.6500293 504.26265625 -83.95458984 503.8828125 C-66.50145949 494.32171157 -50.78985953 482.26239723 -36 469 C-35.23381348 468.3184082 -35.23381348 468.3184082 -34.45214844 467.62304688 C-23.73160895 458.06464413 -13.15963577 448.08502859 -4 437 C-3.5575293 436.47132324 -3.11505859 435.94264648 -2.65917969 435.39794922 C25.33522767 401.89333046 49.55320202 364.14653759 59 321 C59.24363281 319.97777344 59.48726562 318.95554687 59.73828125 317.90234375 C66.18756704 286.7088594 57.85828359 250.21714061 40.73999023 223.77783203 C28.01789659 204.91893693 10.51707351 195.05548545 -11.35430908 190.49923706 C-19.41964203 188.97732341 -27.59319682 188.06561044 -35.73431396 187.05056763 C-103.2692453 178.57420616 -179.65718476 162.3638059 -233 117 C-233.81855469 116.32710937 -234.63710938 115.65421875 -235.48046875 114.9609375 C-245.52184226 106.39852598 -253.318936 96.4212444 -258 84 C-258.61875 82.39125 -258.61875 82.39125 -259.25 80.75 C-263.49834082 65.17275032 -260.34973212 48.78932874 -252.7578125 34.75 C-244.25948517 21.45483903 -231.67677425 13.4575873 -216.4375 9.75 C-211.33148081 8.77126938 -206.18524776 8.31172311 -201 8 C-200.30648437 7.95746094 -199.61296875 7.91492188 -198.8984375 7.87109375 C-182.71392083 7.40243014 -168.28964925 11.10664172 -154 18.625 C-136.57951814 27.50944575 -115.46230831 27.11442511 -97.01025391 21.38183594 C-88.42616865 18.48889182 -81.23594959 14.45996196 -74 9 C-67.43237937 4.36719396 -60.5444657 0.65733673 -53.3125 -2.8125 C-52.51658447 -3.19776855 -51.72066895 -3.58303711 -50.90063477 -3.97998047 C-33.48976288 -12.14545327 -15.96053152 -10.53681796 0 0 Z " fill="#8CC53F" transform="translate(1156,600)"/>
<path d="M0 0 C1.22098989 3.66296968 0.67451743 4.41592408 -0.80859375 7.8828125 C-1.22197998 8.87176514 -1.63536621 9.86071777 -2.0612793 10.87963867 C-2.51543213 11.95060791 -2.96958496 13.02157715 -3.4375 14.125 C-23.19756299 62.2912382 -32.9882524 113.8395714 -28.6875 165.8125 C-28.61964294 166.64694641 -28.55178589 167.48139282 -28.48187256 168.34112549 C-26.29977699 194.95402164 -21.09661346 216.30929455 -9.30419922 240.33496094 C3.75249994 267.01540422 12.7662909 296.77279454 3 326 C-0.8559856 336.14494151 -6.11027473 344.47152589 -14 352 C-14.53882813 352.55816406 -15.07765625 353.11632813 -15.6328125 353.69140625 C-30.46413402 367.96375837 -53.70027233 370.73303848 -73.3125 371.25 C-93.83560649 370.67892225 -112.4515859 363.63592336 -127 349 C-129.35746334 345.83675242 -130.70916091 342.71681295 -132 339 C-132.60521484 337.32164062 -132.60521484 337.32164062 -133.22265625 335.609375 C-147.59557749 292.88144904 -148.05786953 241.79702608 -147 197 C-146.98598145 196.15920898 -146.97196289 195.31841797 -146.95751953 194.45214844 C-146.17084303 153.07458624 -137.02485912 103.59393474 -113 69 C-112.31421875 68.01128906 -111.6284375 67.02257812 -110.921875 66.00390625 C-85.03756855 30.2034896 -45.56834019 8.19811571 -2.37109375 0.33984375 C-1.58863281 0.22769531 -0.80617188 0.11554687 0 0 Z " fill="#8BC53F" transform="translate(802,776)"/>
<path d="M0 0 C160.49473684 0 160.49473684 0 191 28 C191.96873047 28.88558594 191.96873047 28.88558594 192.95703125 29.7890625 C196.98595699 33.91802929 199.62766721 38.66191846 202.25 43.75 C202.74439575 44.69661499 202.74439575 44.69661499 203.2487793 45.66235352 C208.18419732 55.73141434 209.49371348 65.8936942 209.375 77 C209.38660156 78.08539062 209.39820313 79.17078125 209.41015625 80.2890625 C209.35313114 96.21807546 204.46817543 110.1969066 193.33203125 121.7578125 C179.23817316 135.30869113 160.45547147 142.19104069 141 143 C141 144.65 141 146.3 141 148 C142.03125 147.9175 143.0625 147.835 144.125 147.75 C158.27498565 147.79999995 172.72646653 154.96740787 182.75390625 164.59375 C198.77523006 181.75746385 203.60210266 206.67067779 209.78588867 228.61083984 C210.82240897 232.28512559 211.8669506 235.95706955 212.91210938 239.62890625 C213.57339464 241.96601064 214.23421915 244.30324547 214.89453125 246.640625 C215.20695267 247.73739563 215.51937408 248.83416626 215.84126282 249.96417236 C216.12543564 250.97663025 216.40960846 251.98908813 216.70239258 253.03222656 C217.07948112 254.36667816 217.07948112 254.36667816 217.46418762 255.72808838 C218 258 218 258 218 261 C199.52 261 181.04 261 162 261 C161.04738281 257.02453125 160.09476563 253.0490625 159.11328125 248.953125 C158.33984548 245.75025211 157.56441587 242.5478764 156.78765106 239.34580994 C155.97283228 235.98451742 155.16141086 232.62249357 154.35864258 229.25830078 C153.43374271 225.38301804 152.49259628 221.51183192 151.55078125 217.640625 C151.27035477 216.455755 150.98992828 215.27088501 150.70100403 214.05010986 C146.98772807 198.92339834 141.78811746 184.49314148 128 176 C116.28130284 169.88942071 104.27884946 168.72276765 91.234375 168.5859375 C90.2045752 168.56829346 89.17477539 168.55064941 88.11376953 168.5324707 C84.32599501 168.47016994 80.53797691 168.42345781 76.75 168.375 C68.2525 168.25125 59.755 168.1275 51 168 C51 198.69 51 229.38 51 261 C34.17 261 17.34 261 0 261 C0 174.87 0 88.74 0 0 Z M51 41 C51 70.04 51 99.08 51 129 C101.55658549 132.53429211 101.55658549 132.53429211 146.87109375 114.2734375 C155.72009586 104.60794392 157.45366613 93.44788342 157.25 80.71875 C156.55028977 70.31056032 153.03638978 60.47557431 145.3125 53.25 C134.7061873 44.66961219 121.04774087 40.85934189 107.53564453 40.88647461 C106.25729736 40.88659546 104.9789502 40.88671631 103.66186523 40.88684082 C102.31884715 40.89187483 100.97582955 40.89704132 99.6328125 40.90234375 C98.40038818 40.90335083 97.16796387 40.90435791 95.89819336 40.90539551 C91.3071194 40.91061616 86.71605874 40.92457743 82.125 40.9375 C71.85375 40.958125 61.5825 40.97875 51 41 Z " fill="#8BC53F" transform="translate(964,2042)"/>
<path d="M0 0 C162.00462963 0 162.00462963 0 191.52929688 28.47021484 C206.3733031 43.91054402 209.65669061 62.48377266 209.3125 83.0546875 C208.68330363 99.63925506 202.02631154 113.61587014 190 125 C176.73103575 136.01452857 158.24079483 142.59039148 141 143 C141 144.65 141 146.3 141 148 C142.00675781 147.96648438 143.01351563 147.93296875 144.05078125 147.8984375 C158.11842238 148.2602166 172.58145525 154.64951835 182.62890625 164.359375 C189.5863366 172.10768293 194.11205693 180.57433793 197.77734375 190.26953125 C198.11802383 191.16873795 198.45870392 192.06794464 198.80970764 192.99440002 C202.79259998 203.78227886 205.8899603 214.82256596 208.95727539 225.89868164 C209.95152397 229.48812948 210.95996906 233.07336587 211.97070312 236.65820312 C212.61539012 238.95810733 213.25930012 241.25822952 213.90234375 243.55859375 C214.20019272 244.6210582 214.49804169 245.68352264 214.80491638 246.77818298 C215.2165377 248.2674807 215.2165377 248.2674807 215.63647461 249.78686523 C215.87659775 250.65174057 216.11672089 251.51661591 216.36412048 252.40769958 C217.05869976 255.23930229 217.52068703 258.12412217 218 261 C199.52 261 181.04 261 162 261 C155.12011719 233.48046875 155.12011719 233.48046875 154.44718933 230.78726196 C153.99036141 228.96100073 153.53251803 227.13499335 153.07392883 225.30917358 C151.98381539 220.96443655 150.90312774 216.61866331 149.86889648 212.26025391 C148.28955592 205.64516274 146.74444122 199.4155443 143.5625 193.375 C143.00691406 192.28960938 142.45132812 191.20421875 141.87890625 190.0859375 C135.78776229 180.08177175 127.06068534 174.47936749 116 171 C107.76437748 169.17703357 99.64558979 168.67416703 91.234375 168.5859375 C90.2045752 168.56829346 89.17477539 168.55064941 88.11376953 168.5324707 C84.32599501 168.47016994 80.53797691 168.42345781 76.75 168.375 C68.2525 168.25125 59.755 168.1275 51 168 C51 198.69 51 229.38 51 261 C34.17 261 17.34 261 0 261 C0 174.87 0 88.74 0 0 Z M51 41 C51 70.04 51 99.08 51 129 C100.08212859 131.74378613 100.08212859 131.74378613 145.1875 115.8125 C153.83249697 107.16750303 156.93428176 96.67316331 157.1875 84.6875 C157.023634 72.69250881 153.66331769 61.66331769 145 53 C131.399603 42.04259513 115.1276392 40.6696127 98.265625 40.8046875 C96.45553955 40.80770874 96.45553955 40.80770874 94.60888672 40.81079102 C90.1558851 40.82115465 85.70293822 40.84907615 81.25 40.875 C71.2675 40.91625 61.285 40.9575 51 41 Z " fill="#8BC53F" transform="translate(1225,2042)"/>
<path d="M0 0 C1.61857962 1.5265277 3.22343629 3.06777062 4.8125 4.625 C5.51246094 5.28886719 6.21242188 5.95273438 6.93359375 6.63671875 C15.7998889 15.71041262 21.32811145 28.28872581 23.8125 40.625 C24.039375 41.65625 24.26625 42.6875 24.5 43.75 C24.77828489 46.31022098 24.84365449 48.73362761 24.83203125 51.3046875 C24.82921143 52.11405762 24.8263916 52.92342773 24.82348633 53.75732422 C24.81986084 54.37365723 24.81623535 54.98999023 24.8125 55.625 C13.61772698 58.88292156 2.40432891 62.0463793 -8.875 65 C-10.37075562 65.39372803 -10.37075562 65.39372803 -11.89672852 65.79541016 C-12.82155029 66.03565918 -13.74637207 66.2759082 -14.69921875 66.5234375 C-15.51865967 66.73661621 -16.33810059 66.94979492 -17.18237305 67.16943359 C-19.1875 67.625 -19.1875 67.625 -21.1875 67.625 C-21.39052734 65.91957031 -21.39052734 65.91957031 -21.59765625 64.1796875 C-23.34357732 51.09737429 -26.54687306 38.5957503 -36.765625 29.3671875 C-47.438066 21.68991543 -60.07804882 17.30627857 -73.1875 16.625 C-74.20199219 16.57214844 -75.21648437 16.51929687 -76.26171875 16.46484375 C-92.73807981 16.0327385 -109.64533338 18.78101333 -122.63671875 29.6796875 C-127.92739625 35.38075298 -130.78959465 41.79952821 -131.1875 49.625 C-130.33774169 57.96325345 -127.86216043 63.53117331 -121.4375 69.0625 C-103.9304127 81.9104431 -80.30117902 85.56364732 -59.5625 90.125 C-29.6566521 96.71814854 4.61206625 105.05933297 23.69140625 131.19921875 C34.11444187 147.83950369 36.75754854 168.11251493 32.68310547 187.26464844 C28.08496999 205.68437144 17.53493801 219.47939217 1.75 229.6875 C-33.72746054 250.84303299 -83.00584144 251.49857576 -122.28295898 242.03222656 C-131.91579902 239.51904264 -140.53373521 235.49092161 -149.1875 230.625 C-150.03699219 230.15449219 -150.88648438 229.68398437 -151.76171875 229.19921875 C-169.14467928 218.61964313 -178.3247285 201.82564283 -183.1875 182.625 C-184.04853563 178.2730636 -184.29524074 174.18359262 -184.25 169.75 C-184.24097656 168.59757812 -184.23195313 167.44515625 -184.22265625 166.2578125 C-184.21105469 165.38898437 -184.19945312 164.52015625 -184.1875 163.625 C-158.9861345 155.82713774 -158.9861345 155.82713774 -148.1875 152.625 C-147.495354 152.41786377 -146.80320801 152.21072754 -146.09008789 151.99731445 C-141.42613389 150.625 -141.42613389 150.625 -139.1875 150.625 C-139.04054688 152.14867188 -139.04054688 152.14867188 -138.890625 153.703125 C-137.68875152 165.16284889 -136.16074767 175.93497426 -128.45703125 185.00390625 C-127.1875 186.625 -127.1875 186.625 -126.1875 189.625 C-124.34094766 190.68927298 -124.34094766 190.68927298 -122.1875 191.625 C-120.84436626 192.54840445 -119.51162525 193.48703888 -118.1875 194.4375 C-99.22126347 207.08165768 -73.52813293 208.5696958 -51.56323242 204.49291992 C-40.12924401 201.98882809 -27.45901775 197.51163099 -20.69140625 187.38671875 C-16.51998924 180.16650404 -15.35476698 173.9754617 -16.1875 165.625 C-18.78964068 157.22461107 -24.8881538 152.34365844 -32.29296875 148.09375 C-48.62124925 139.80841469 -67.88242824 136.38249461 -85.5625 132.1875 C-123.30299639 123.18158349 -123.30299639 123.18158349 -140.1875 114.625 C-140.80302734 114.31449707 -141.41855469 114.00399414 -142.05273438 113.68408203 C-150.42698994 109.37663449 -157.55774741 104.34085328 -164.1875 97.625 C-164.74824219 97.08617188 -165.30898437 96.54734375 -165.88671875 95.9921875 C-176.76781061 84.6255876 -180.12723405 68.88698692 -180.5625 53.6875 C-180.1105508 36.45448063 -175.85898309 21.37294668 -165.1875 7.625 C-164.51460937 6.70460938 -164.51460937 6.70460938 -163.828125 5.765625 C-150.1483889 -11.77662482 -125.4926511 -20.25988791 -104.203125 -23.0390625 C-103.20796875 -23.14992188 -102.2128125 -23.26078125 -101.1875 -23.375 C-99.81851562 -23.54128906 -99.81851562 -23.54128906 -98.421875 -23.7109375 C-64.93009995 -27.17237794 -26.2336881 -22.92457547 0 0 Z " fill="#8CC53F" transform="translate(1895.1875,2061.375)"/>
<path d="M0 0 C63.69 0 127.38 0 193 0 C193 13.86 193 27.72 193 42 C146.14 42 99.28 42 51 42 C51 64.11 51 86.22 51 109 C91.92 109 132.84 109 175 109 C175 121.87 175 134.74 175 148 C134.08 148 93.16 148 51 148 C51 171.43 51 194.86 51 219 C98.19 219 145.38 219 194 219 C194 232.86 194 246.72 194 261 C129.98 261 65.96 261 0 261 C0 174.87 0 88.74 0 0 Z " fill="#8BC63E" transform="translate(1486,2042)"/>
<path d="M0 0 C16.83 0 33.66 0 51 0 C51.0093457 5.12660156 51.01869141 10.25320312 51.02832031 15.53515625 C51.06214428 32.50652711 51.11752444 49.47777764 51.18390274 66.4490509 C51.22361027 76.73491659 51.2560447 87.02070669 51.27099609 97.30664062 C51.28405572 106.27815266 51.31112967 115.24949779 51.35461307 124.22091579 C51.37713138 128.96553296 51.3929165 133.70994502 51.39188385 138.45462036 C51.3911315 142.93301279 51.40931003 147.41095346 51.44116783 151.88922882 C51.44959112 153.52084538 51.45146917 155.15251308 51.44580269 156.78414154 C51.39140223 174.87772643 54.51801306 192.12186873 67.43359375 205.67578125 C78.23449192 215.45741658 92.64361079 219.47083822 107 220 C107.9075 220.03996094 108.815 220.07992187 109.75 220.12109375 C128.1060991 220.53605876 146.35702715 217.05760021 160.25 204.375 C172.88950423 190.86907814 174.60693012 171.96823292 174.54589844 154.39453125 C174.55465891 152.69760198 174.56515317 151.00068092 174.57722473 149.30377197 C174.60480292 144.75107837 174.60849573 140.19865803 174.60750484 135.6458931 C174.61065848 130.86795356 174.63632706 126.09013276 174.65948486 121.31225586 C174.69986223 112.28880171 174.72034236 103.26541949 174.73345876 94.241889 C174.74939106 83.95869908 174.78783255 73.6756305 174.82805204 63.39251137 C174.91020081 42.26169104 174.96147866 21.13094801 175 0 C191.83 0 208.66 0 226 0 C226.0679234 22.35864151 226.12310141 44.71719848 226.15543652 67.07591724 C226.17085449 77.45925931 226.19184614 87.84253234 226.22631836 98.22583008 C226.25637694 107.28408203 226.27561177 116.34228395 226.28226548 125.4005844 C226.28615008 130.18946546 226.29517151 134.97820348 226.31719017 139.76703835 C226.33781648 144.29044553 226.34378205 148.81365314 226.33932304 153.33710289 C226.34013673 154.98200446 226.34594461 156.62691393 226.35761642 158.27177429 C226.55803516 188.01897789 219.56792298 216.46750959 198.59375 238.53125 C172.32957813 263.43104931 136.36376123 267.06538564 101.97668457 266.23306274 C93.14646261 265.96003622 84.60537287 264.98570494 76 263 C75.27119629 262.83371094 74.54239258 262.66742187 73.79150391 262.49609375 C58.89385965 258.94041291 45.07390449 252.47101566 33 243 C32.3296875 242.49339844 31.659375 241.98679687 30.96875 241.46484375 C11.73440448 225.93234647 2.6497084 200.86729009 0 177 C-0.33756619 171.09886988 -0.25412808 165.18431579 -0.22705078 159.27612305 C-0.22648541 157.5303854 -0.22680568 155.78464728 -0.22793579 154.03890991 C-0.22850539 149.33937383 -0.2168153 144.63994158 -0.20278788 139.94042945 C-0.19021444 135.01439435 -0.18910483 130.08835641 -0.18673706 125.16230774 C-0.18054162 115.85186013 -0.1641572 106.54145995 -0.14403808 97.23103315 C-0.12161857 86.62392685 -0.11067048 76.0168182 -0.10064721 65.40969408 C-0.07978909 43.60643043 -0.04313726 21.80323174 0 0 Z " fill="#8BC63F" transform="translate(682,2042)"/>
<path d="M0 0 C62.04 0 124.08 0 188 0 C188 14.52 188 29.04 188 44 C142.46 44 96.92 44 50 44 C50 68.09 50 92.18 50 117 C90.59 117 131.18 117 173 117 C173 131.19 173 145.38 173 160 C132.41 160 91.82 160 50 160 C50 193.33 50 226.66 50 261 C33.5 261 17 261 0 261 C0 174.87 0 88.74 0 0 Z " fill="#8BC63F" transform="translate(455,2042)"/>
<path d="M0 0 C67.65 0 135.3 0 205 0 C205 14.19 205 28.38 205 43 C179.59 43 154.18 43 128 43 C128 114.94 128 186.88 128 261 C111.17 261 94.34 261 77 261 C77 189.06 77 117.12 77 43 C51.59 43 26.18 43 0 43 C0 28.81 0 14.62 0 0 Z " fill="#8BC53F" transform="translate(1949,2042)"/>
<path d="M0 0 C3.49893356 2.44111643 4.92124266 3.93488748 6.6875 7.875 C8.57430519 20.62416033 3.75920777 31.68206465 -3.23046875 42.11328125 C-7.21413418 47.39743033 -11.67139402 52.16623941 -16.3125 56.875 C-16.96992187 57.5453125 -17.62734375 58.215625 -18.3046875 58.90625 C-27.28819499 67.38853175 -39.95433698 74.51415818 -52.4375 75.3125 C-57.09923081 74.78617555 -60.58548175 73.77093602 -64.3125 70.875 C-67.54704661 65.71994134 -68.13154887 60.792398 -67.3125 54.875 C-62.37056791 34.46509969 -48.37128405 17.88225304 -31 6.625 C-21.48109993 0.98252481 -10.99919275 -3.7355749 0 0 Z " fill="#8CC53F" transform="translate(1103.3125,922.125)"/>
<path d="M0 0 C0 0.66 0 1.32 0 2 C-4.52092174 3.22441631 -9.00453015 4.18339448 -13.62597656 4.95874023 C-30.50270223 7.85480555 -47.32127518 14.29031055 -57.80078125 28.4296875 C-67.96286198 43.44432498 -70.08891361 59.47493115 -72 77 C-73.485 77.495 -73.485 77.495 -75 78 C-75.6392371 76.71531961 -76.26033982 75.42161893 -76.875 74.125 C-77.22304688 73.40570312 -77.57109375 72.68640625 -77.9296875 71.9453125 C-80.76405386 64.14563281 -81.36290383 56.3042465 -81.3125 48.0625 C-81.30686035 47.09393066 -81.3012207 46.12536133 -81.29541016 45.12744141 C-81.1800033 38.34814569 -80.66659136 32.3028523 -78 26 C-77.5978125 25.01 -77.195625 24.02 -76.78125 23 C-70.97699384 10.10165297 -61.97094161 3.10808693 -49 -2 C-35.19298594 -6.48528434 -12.74167033 -8.49444689 0 0 Z " fill="#8CC53F" transform="translate(932,914)"/>
<path d="M0 0 C1.796875 1.60546875 1.796875 1.60546875 3 3 C0.07720276 4.61995943 -2.44995157 5.38970498 -5.74609375 5.89453125 C-6.6594751 6.04237061 -7.57285645 6.19020996 -8.51391602 6.3425293 C-9.47869873 6.49761963 -10.44348145 6.65270996 -11.4375 6.8125 C-27.67238872 9.63773748 -43.67663508 15.14836452 -54.37890625 28.51953125 C-63.10423139 41.87032996 -66.8500956 55.26692523 -68.35498047 71.03466797 C-68.90700301 76.81400602 -68.90700301 76.81400602 -70 79 C-70.99 79 -71.98 79 -73 79 C-80.05935098 61.89992165 -81.57245047 43.19002612 -74.75 25.75 C-69.59120112 14.21414361 -61.6290118 5.90535404 -49.875 1.06640625 C-48.92625 0.71449219 -47.9775 0.36257813 -47 0 C-45.7315625 -0.48146484 -45.7315625 -0.48146484 -44.4375 -0.97265625 C-31.67475621 -4.96101368 -12.45412043 -5.60435419 0 0 Z " fill="#8CC53F" transform="translate(1041,812)"/>
<path d="M0 0 C11.27174487 3.62929246 20.45351071 12.73149956 26 23 C28.12510479 27.71187027 28.48897064 30.86580825 28 36 C26.6875 38.5 26.6875 38.5 24 40 C16.67464705 41.40115811 10.98780361 39.78362523 4.70703125 35.96484375 C-3.91220495 29.7087459 -10.60709334 22.17871998 -14 12 C-14.55485498 5.00882724 -14.55485498 5.00882724 -12.625 1.5 C-8.4348985 -0.89434371 -4.70092924 -0.75865141 0 0 Z " fill="#8CC53F" transform="translate(1579,937)"/>
<path d="M0 0 C5.18268111 4.33441793 7.38212958 8.17036556 8.02734375 14.94140625 C8.2049953 22.09721066 7.84877438 27.92073148 4.6875 34.375 C4.0275 34.375 3.3675 34.375 2.6875 34.375 C2.60113281 33.40820312 2.51476563 32.44140625 2.42578125 31.4453125 C1.37671876 21.72464176 0.07157135 12.74966436 -7.75 6 C-13.26624515 2.25873161 -19.91178835 0.9032598 -26.3125 -0.625 C-25.9825 -1.615 -25.6525 -2.605 -25.3125 -3.625 C-17.70642918 -6.97167116 -6.58334023 -4.49474806 0 0 Z " fill="#8CC53F" transform="translate(1598.3125,869.625)"/>
<path d="M0 0 C5.27090585 3.82399052 8.21063779 8.11404586 10.1875 14.3125 C10.56204338 17.0581473 10.56494562 19.73331674 10.5 22.5 C10.50322266 23.19802734 10.50644531 23.89605469 10.50976562 24.61523438 C10.47089261 28.3293738 10.23257729 31.15933302 8.1875 34.3125 C7.1975 33.8175 7.1975 33.8175 6.1875 33.3125 C5.62937854 31.26995077 5.16526206 29.20131028 4.75 27.125 C3.09854084 19.60716351 1.24328846 14.33751596 -4.8125 9.3125 C-11.79048642 4.8742954 -18.66039647 3.2509724 -26.8125 2.3125 C-26.8125 1.6525 -26.8125 0.9925 -26.8125 0.3125 C-19.58499852 -3.25135674 -7.42656297 -3.47416866 0 0 Z " fill="#8CC53F" transform="translate(1650.8125,921.6875)"/>
</svg>
