<?xml version="1.0" encoding="UTF-8"?>
<svg id="Layer_1" data-name="Layer 1" xmlns="http://www.w3.org/2000/svg" viewBox="0 0 612 792">
  <defs>
    <style>
      .cls-1 {
        stroke-width: 0px;
      }

      .cls-1, .cls-2 {
        fill: #8dc63f;
      }

      .cls-2 {
        stroke: #8dc63f;
        stroke-miterlimit: 10;
        stroke-width: 2px;
      }
    </style>
  </defs>
  <g>
    <path class="cls-2" d="M159.64,325.12c3.24-.62,7.44-.92,12.06.17,15.39,3.65,25.85,20.55,23.27,23.9-2.44,3.18-18.92-2.8-28.94-14.27-3.05-3.5-5.06-6.99-6.39-9.8Z"/>
    <path class="cls-2" d="M93.23,291.77c-3.48.98-6.3,2.52-8.39,3.92,1.75,2.2,4.25,4.68,7.63,6.34,11.27,5.52,25.39-1.55,25.28-5.44-.1-3.69-13.1-8.04-24.52-4.81Z"/>
    <g>
      <path class="cls-1" d="M36.59,381.84c0-.7.03-1.38.04-2.08-1.17-.29-2.3-.84-3.29-1.58-.05,1.21-.08,2.43-.08,3.66,0,6.54.75,12.9,2.14,19.03,1.34.71,2.63,1.32,3.88,1.87-1.74-6.68-2.68-13.68-2.68-20.9Z"/>
      <path class="cls-1" d="M205.56,381.84c0-47.5-38.65-86.15-86.15-86.15-.87,0-1.73.03-2.59.05.45,1.06.71,2.19.71,3.32.63-.01,1.25-.04,1.88-.04,45.67,0,82.82,37.15,82.82,82.82,0,7-.89,13.8-2.54,20.29,1.26-.59,2.56-1.25,3.9-2,1.28-5.9,1.97-12.01,1.97-18.29Z"/>
      <path class="cls-1" d="M203.59,400.13c-1.34.75-2.64,1.41-3.9,2-3.07,1.44-5.87,2.44-8.3,3.15-10.64,3.11-14.2,1.36-26.66,5.12-7.56,2.28-15.93,4.8-24.14,11.81,0,0-12.48,10.64-17.52,28.86-1.48,5.35-2.34,12.22-2.4,15.51,0,.38-.04,2.62-.02,5.52,0,1.57.02,2.87.04,3.77,2.68-4.31,6.58-10,11.96-16.13,2.76-3.13,11.13-12.34,24.52-21.35,4.84-3.25,11.41-7.21,19.64-10.92-9.08,5.71-19.96,13.71-30.92,24.7-8.58,8.6-15.26,17.06-20.39,24.5,0,0,18.31-3.37,24.16-4.75,26.76-6.32,44.96-30.65,48.46-35.51,12.8-17.78,16.37-35.58,17.54-44.85-4.23,3.71-8.3,6.48-12.07,8.59Z"/>
      <path class="cls-1" d="M114.57,451.07c-5.04-18.22-17.52-28.86-17.52-28.86-8.21-7-16.59-9.53-24.14-11.81-12.47-3.76-16.02-2-26.66-5.12-2.07-.61-4.42-1.43-6.97-2.54-1.25-.55-2.54-1.16-3.88-1.87-4.13-2.18-8.68-5.17-13.42-9.32,1.17,9.28,4.74,27.07,17.54,44.85,3.5,4.86,21.7,29.19,48.46,35.51,5.84,1.38,24.16,4.75,24.16,4.75-5.13-7.44-11.81-15.91-20.39-24.5-10.96-10.98-21.84-18.98-30.92-24.7,8.24,3.71,14.81,7.67,19.64,10.92,13.39,9.01,21.77,18.22,24.52,21.35,5.39,6.13,9.29,11.82,11.96,16.13.01-.9.03-2.2.04-3.77.01-2.9-.02-5.14-.02-5.52-.06-3.29-.92-10.16-2.4-15.51Z"/>
    </g>
    <path class="cls-2" d="M36.04,347.36c-1.91,1.81-4.06,4.4-5.49,7.91-4.78,11.69,1.34,26.32,4.71,26.21,3.2-.11,6.97-13.58,4.17-25.42-.85-3.61-2.19-6.53-3.4-8.7Z"/>
    <g>
      <path class="cls-1" d="M65.91,353.88c-2.38.41-7.45,1.66-11.31,5.98-3.34,3.75-4.05,7.89-4.89,12.69-.69,3.99-.03,19.03,2.35,20.56,2.23,2.23,5.36,2.14,5.81,2.12,6.43-.12,8.25-3.71,8.66-7.25.14-1.24-.15-2.39-.48-3.69-.58-2.27-1.44-3.58-2.04-4.79-1.14-2.33-1.3-4.27-1.59-7.85-.38-4.7.48-8.29,1.02-10.57.72-3.05,1.68-5.5,2.46-7.21Z"/>
      <path class="cls-1" d="M73.09,387.87s1.96,6.92,14.88,10.1c10.42,2.57,15.32-1.99,15.32-1.99,0,0,2.88,7.44,8.91,13.62,0,0,7.14,6.56,17.83,6.24,1.43-.04,4.97-.19,5.85-2.1.34-.76.27-1.78.25-2.08,0,0-.12-1.67-1.1-3-1.6-2.17-4.86-1.28-8.97-2.33,0,0-3.69-.95-7.16-3.81-4.07-3.36-6.47-8.87-6.56-14.05-.16-9.08,6.62-17.04,13.55-19.67,4.89-1.86,6.73.12,13.23-2.71,3.27-1.42,7.29-3.16,9.42-7.16,1.08-2.03,1.03-3.41,2.9-6.35.79-1.25,4.51-4.41,4.51-4.41.6,1.04,1.27,2.39,1.78,4.04.71,2.27.88,4.29.89,5.76,1.1.47,3.31,1.6,5.19,3.97,1.75,2.21,2.36,4.43,2.6,5.6.62-.69,1.71-1.74,3.37-2.56,1.7-.84,3.25-1.06,4.18-1.13-.09,1.1-.38,2.64-1.37,4.09-.96,1.41-1.87,1.29-3.23,2.95-.9,1.1-.81,1.47-1.95,3.34-.08.13-1.31,2.12-2.52,3.44-2.62,2.87-6.18,3.69-6.75,3.82-3.9.87-8.61-.02-10.55-2.19-.21-.23-.55-.67-1.2-1.03,0,0-1.94-1.07-4.46-.05-2.65,1.07-3.65,7.42-2.21,15.53-2.94.04-6.25-.07-9.85-.48-4.33-.48-8.17-1.28-11.46-2.15,2.76,2.46,7.44,6.19,14.2,8.53,3.04,1.06,9.32,2.9,17.64,2.7,5.03-.12,15.99-.38,25.45-7.82,2.36-1.86,4.85-3.81,6.69-7.34,4.85-9.31.08-19.84-1.2-22.68-6.39-14.11-20.54-18.63-22.27-19.15-4.98-1.5-9.19-1.46-17.61-1.38-7.89.07-14.97,1.07-18.08,1.51-6.37.91-9.21,1.44-9.21,1.44-5.55.98-6.34,1.31-8.99,1.38-3.56.1-7.85-.36-8.14-.38,0,0,3.31-1.09,6.48-4.32.62-.63,4.7-4.77,3.27-7.93-.69-1.52-2.45-2.39-3.85-2.55-1.6-.19-2.91.51-4.31,1.26-1.36.73-1.35,1.04-2.46,1.62-2.12,1.1-4.21,1.04-4.97,1.01-3.02-.12-3.13-1.48-6.07-1.86-.63-.08-4.6-.59-6.92,1.83-1.29,1.35-1.94,3.45-1.68,5.27.89,6.25,12.62,10.34,19.47,11.77,6.7,1.4,9.82.51,12.91,3.39,2.9,2.71,3.6,6.72,3.72,9.78.28,8-9.08,20.38-18.45,24.49-2.17.55-6.22,1.29-11.15.34-4.65-.9-7.98-2.89-9.79-4.15Z"/>
      <path class="cls-1" d="M99.85,370.5c1.02.99.22,3.48-1.79,5.56-2.01,2.09-4.47,2.98-5.49,2-1.02-.99-.22-3.48,1.79-5.56,2.01-2.09,4.47-2.98,5.49-2Z"/>
      <path class="cls-1" d="M84.65,366.66c-.4-.02-1.88-4.64.59-7.36,2.56-2.82,7.55-1.58,7.59-1.19.04.34-3.75-.04-6.12,2.54-2.29,2.48-1.7,6.02-2.06,6.01Z"/>
      <path class="cls-1" d="M72.15,377.9c-.4-.02-1.88-4.64.59-7.36,2.56-2.82,7.55-1.58,7.59-1.19.04.34-3.75-.04-6.12,2.54-2.29,2.48-1.7,6.02-2.06,6.01Z"/>
      <path class="cls-1" d="M158,370.27c0-.18,2.05-.83,3.25.26,1.24,1.13.7,3.33.53,3.35-.15.02.02-1.66-1.12-2.7-1.1-1.01-2.66-.75-2.65-.91Z"/>
      <path class="cls-1" d="M152.12,364.04c.03-.17,2.14-.57,3.19.66,1.1,1.27.28,3.39.11,3.39-.15,0,.22-1.64-.78-2.82-.96-1.14-2.55-1.08-2.52-1.23Z"/>
      <path class="cls-1" d="M155.74,376.05c-.53.56-1.9.14-3.05-.95-1.15-1.09-1.65-2.43-1.12-2.99.53-.56,1.9-.14,3.05.95,1.15,1.09,1.65,2.43,1.12,2.99Z"/>
    </g>
  </g>
  <g>
    <path class="cls-1" d="M249.34,422.04v-52.1h9.95v52.1h-9.95ZM253.91,401.68v-8.37h30v8.37h-30ZM253.91,378.56v-8.61h33.07v8.61h-33.07Z"/>
    <path class="cls-1" d="M317.52,423.07c-3.05,0-5.79-.32-8.21-.95-2.42-.63-4.54-1.55-6.36-2.76-1.81-1.21-3.31-2.68-4.5-4.42-1.18-1.74-2.08-3.71-2.68-5.92-.6-2.21-.9-4.6-.9-7.18v-31.89h10.02v31.49c0,2.74.45,5.06,1.34,6.95.9,1.89,2.28,3.32,4.15,4.3,1.87.97,4.25,1.46,7.14,1.46s5.35-.48,7.22-1.46c1.87-.98,3.24-2.41,4.11-4.3.87-1.89,1.3-4.21,1.3-6.95v-31.49h9.95v31.89c0,3.42-.47,6.45-1.42,9.08-.95,2.63-2.38,4.85-4.31,6.67-1.92,1.81-4.29,3.18-7.1,4.11-2.81.92-6.06,1.38-9.75,1.38Z"/>
    <path class="cls-1" d="M351.61,422.04v-52.1h20.13c2.53,0,4.89.2,7.1.59,2.21.4,4.21,1,6,1.82,1.79.82,3.31,1.83,4.58,3.04,1.26,1.21,2.24,2.63,2.92,4.26.68,1.63,1.03,3.5,1.03,5.6,0,1.79-.28,3.44-.83,4.93-.55,1.5-1.4,2.81-2.53,3.94-1.13,1.13-2.57,2.05-4.3,2.77-1.74.71-3.73,1.22-6,1.54v1.02c2.42.26,4.41.84,5.96,1.74,1.55.89,2.82,2.13,3.79,3.71.98,1.58,1.8,3.61,2.48,6.08l3.16,11.05h-10.97l-2.44-10.1c-.47-2.16-1.21-3.85-2.21-5.09-1-1.24-2.21-2.12-3.63-2.64-1.42-.53-3.1-.79-5.05-.79h-9.23v18.63h-9.95ZM361.56,395.68h7.81c.95,0,2.01-.02,3.2-.08,1.18-.05,2.39-.21,3.63-.47,1.24-.27,2.37-.71,3.4-1.35,1.03-.63,1.85-1.51,2.48-2.64.63-1.13.95-2.59.95-4.38s-.3-3.25-.91-4.38c-.6-1.13-1.4-2.01-2.4-2.64-1-.63-2.05-1.08-3.16-1.35-1.1-.26-2.16-.42-3.15-.47-1-.05-1.81-.08-2.44-.08h-9.39v17.84Z"/>
    <path class="cls-1" d="M403.94,422.04v-52.1h20.13c2.53,0,4.89.2,7.1.59,2.21.4,4.21,1,6,1.82,1.79.82,3.31,1.83,4.58,3.04,1.26,1.21,2.24,2.63,2.92,4.26.68,1.63,1.03,3.5,1.03,5.6,0,1.79-.28,3.44-.83,4.93-.55,1.5-1.4,2.81-2.53,3.94-1.13,1.13-2.57,2.05-4.3,2.77-1.74.71-3.73,1.22-6,1.54v1.02c2.42.26,4.41.84,5.96,1.74,1.55.89,2.82,2.13,3.79,3.71.98,1.58,1.8,3.61,2.48,6.08l3.16,11.05h-10.97l-2.44-10.1c-.47-2.16-1.21-3.85-2.21-5.09-1-1.24-2.21-2.12-3.63-2.64-1.42-.53-3.1-.79-5.05-.79h-9.23v18.63h-9.95ZM413.88,395.68h7.81c.95,0,2.01-.02,3.2-.08,1.18-.05,2.39-.21,3.63-.47,1.24-.27,2.37-.71,3.4-1.35,1.03-.63,1.85-1.51,2.48-2.64.63-1.13.95-2.59.95-4.38s-.3-3.25-.91-4.38c-.6-1.13-1.4-2.01-2.4-2.64-1-.63-2.05-1.08-3.16-1.35-1.1-.26-2.16-.42-3.15-.47-1-.05-1.81-.08-2.44-.08h-9.39v17.84Z"/>
    <path class="cls-1" d="M456.26,422.04v-52.1h10.02v52.1h-10.02ZM462.73,422.04v-8.29h32.29v8.29h-32.29ZM462.73,399.39v-7.58h28.42v7.58h-28.42ZM462.73,378.16v-8.21h32.13v8.21h-32.13Z"/>
    <path class="cls-1" d="M523.18,423.07c-3.42,0-6.47-.34-9.15-1.03-2.68-.68-4.96-1.71-6.83-3.08-1.87-1.37-3.3-3.09-4.31-5.17-1-2.08-1.52-4.46-1.57-7.14l8.92-2.6c-.06,2.53.47,4.62,1.57,6.27,1.11,1.66,2.69,2.89,4.74,3.71,2.05.82,4.42,1.22,7.1,1.22,2.53,0,4.66-.31,6.39-.95,1.74-.63,3.05-1.49,3.95-2.57.9-1.08,1.35-2.3,1.35-3.67,0-1.53-.56-2.76-1.66-3.71-1.1-.95-2.59-1.71-4.46-2.29-1.87-.58-3.99-1.13-6.35-1.66-2.53-.58-5.01-1.22-7.46-1.93-2.45-.71-4.66-1.63-6.63-2.77-1.97-1.13-3.55-2.6-4.73-4.42-1.18-1.82-1.77-4.12-1.77-6.91,0-3.16.79-5.89,2.37-8.21,1.58-2.32,3.87-4.11,6.87-5.37,3-1.26,6.6-1.89,10.82-1.89s7.77.63,10.85,1.89c3.08,1.26,5.48,3.06,7.22,5.4,1.74,2.34,2.66,5.17,2.77,8.49l-9.08,2.37c0-1.68-.28-3.18-.83-4.5-.55-1.32-1.34-2.39-2.37-3.24-1.03-.84-2.28-1.49-3.75-1.93-1.47-.45-3.1-.67-4.89-.67-2.16,0-4.03.3-5.6.91-1.58.6-2.79,1.4-3.63,2.4-.84,1-1.26,2.18-1.26,3.55,0,1.68.63,3.01,1.89,3.99,1.26.97,2.92,1.77,4.98,2.4,2.05.63,4.29,1.21,6.71,1.74,2.31.47,4.61,1.06,6.9,1.77,2.29.71,4.4,1.62,6.32,2.73,1.92,1.1,3.47,2.59,4.66,4.46,1.19,1.87,1.78,4.22,1.78,7.06,0,3.11-.82,5.8-2.45,8.1-1.63,2.29-4.08,4.06-7.34,5.33-3.26,1.26-7.26,1.89-12,1.89Z"/>
    <path class="cls-1" d="M564.61,422.04v-52.1h10.02v52.1h-10.02ZM549.22,378.4v-8.45h40.8v8.45h-40.8Z"/>
  </g>
</svg>